<?xml version="1.0" encoding="UTF-8"?>
<svg xmlns="http://www.w3.org/2000/svg" viewBox="0 0 748 205">
  <defs>
    <style>
      .cls-1 {
        fill: currentColor;
        stroke-width: 0px;
      }
    </style>
  </defs>
  <g id="_Слой_1" data-name="Слой 1">
    <g>
      <path class="cls-1" d="M569.86,154.2c1.96-3.41,3.58-3.84,8.62-8.62,2.39-2.22,7.17-7.17,8.79-8.79,2.56-2.56,2.82-2.82,2.99-2.99h0c3.24-2.65,7-4.27,7-4.27,2.9-1.28,5.21-1.54,9.64-2.13,3.93-.51,6.83-.51,7.51-.51,3.58,0,6.32.34,7.51.51,2.05.34,4.18.6,7,1.62,1.54.51,2.82,1.11,3.76,1.62,4.1,2.13,7.6,5.04,8.62,5.89.68.6,2.3,1.96,4.86,3.07.17,0,.34.09.51.17,1.62.51,2.82.6,8.62.51,6.4,0,6.57-.09,8.02,0,3.93.26,6.15.43,8.62,1.62,3.24,1.54,2.99,2.99,4.86,3.24,1.71.26,2.99-.85,11.27-9.64,1.71-1.79,2.22-2.22,3.5-3.41,1.02-1.02,1.11-1.11,3.5-3.58.6-.6.94-.94,1.11-1.11.26-.26,1.45-1.37,3.24-2.65,0,0,1.45-1.11,2.65-1.71.17-.09.6-.26,1.11-.51,4.69-1.54,8.62-1.11,8.62-1.11h0c2.13.43,5.55,1.54,8.62,4.27,1.54,1.45,2.48,2.82,2.65,3.24.77,1.19,1.88,3.5,2.13,6.49.17,2.3-.26,4.1-.51,5.38-1.11,4.52-3.5,7.51-4.86,9.13-.68.77-.68.68-4.27,4.27,0,0-3.41,3.41-7,7-2.73,2.82-3.07,3.24-6.74,7-7.25,7.51-7,7-11.01,11.27-5.12,5.46-5.21,6.06-8.02,8.62-1.79,1.62-4.69,4.18-9.13,6.49-4.69,2.48-9.05,3.58-11.78,4.27-1.54.43-4.61,1.11-8.62,1.62-3.67.43-9.64.85-17.16,0-7.94-.94-16.22-3.41-19.37-5.38-.34-.17-1.45-.94-3.24-1.62-.85-.34-2.39-.85-4.27-1.11-2.3-.26-2.73.09-4.86,0-2.22-.09-4.95-.26-7-2.13-.34-.34-2.48-2.39-2.13-5.38.26-2.48,2.13-3.84,2.65-4.27,1.37-1.11,2.73-1.37,4.27-1.62,4.18-.77,7.85.26,10.75,1.11.34.09.51.17.94.26,5.21,1.62,12.89,3.84,18.95,5.63,4.18,1.28,6.32,1.88,8.02,2.13,7.6,1.19,13.66,0,15.53-.51,1.37-.34,6.57-1.62,12.38-5.38,3.33-2.13,4.52-3.58,10.24-9.13.17-.17,4.95-4.61,14.51-13.57,0,0,9.05-8.45,12.97-12.8.43-.43.94-1.11,1.96-2.13,1.02-1.02,1.37-1.37,1.96-2.13.51-.68,1.02-1.28,1.37-2.13.26-.6.51-1.19.51-2.05,0-.6,0-1.45-.51-2.13-.77-.94-1.88-1.02-2.13-1.11-.85,0-1.54.26-2.13.51-.85.43-1.45.94-2.65,2.13-1.11,1.11-1.62,1.62-2.13,2.13l-4.27,4.27c-1.79,1.79-3.58,3.58-5.38,5.38s-3.58,3.58-5.38,5.38c-1.19,1.19-2.3,2.3-3.5,3.5-1.28,1.28-1.88,1.88-1.88,1.88-.94.94-1.11,1.11-1.62,1.62-.17.26-1.11,1.28-1.62,2.13-.43.85-.34,1.28-.51,2.13-.43,1.96-1.71,3.24-2.65,4.27-1.37,1.37-2.65,2.13-3.76,2.65-1.71.85-3.24,1.37-4.27,1.62-3.41.85-5.89.68-11.27.51-3.58-.09-7.17,0-10.75,0h-14.51c-.85.09-2.82.34-5.38.09-.34,0-.6,0-1.02-.09-2.56-.34-4.44-.6-5.89-2.13s-2.39-4.01-1.62-6.49c0-.17.85-2.73,3.24-3.76.68-.26,1.37-.34,2.65-.51,1.19-.17,2.22-.17,3.33-.17,2.65,0,2.99.17,5.8.17h25.18c3.84,0,4.78-.17,5.89-.51,1.19-.43,2.48-.85,3.24-2.13,1.02-1.71.77-4.1-.51-5.38-1.02-1.02-2.48-1.02-3.24-1.11-7.43-.17-12.97.6-17.75,0-2.56-.26-4.35-.51-6.49-1.62-3.07-1.62-3.41-3.41-6.49-5.89-3.24-2.65-6.49-3.67-8.62-4.27-4.78-1.45-8.71-1.28-11.78-1.11-6.15.34-8.79,1.19-9.64,1.62-1.54.68-2.65,1.45-4.27,2.65-6.06,4.61-10.07,8.96-17.75,16.64-.34.34-1.11,1.71-2.65,2.65-.51.34-1.71,1.02-3.24,1.11-2.65,0-5.29-2.22-5.89-4.86-.17-.68-.43-2.39,1.62-5.89l-.17.09Z"/>
      <path class="cls-1" d="M661.18,34.46c-26.71,0-48.31,21.68-48.31,48.31s21.68,48.31,48.31,48.31,48.31-21.68,48.31-48.31-21.68-48.31-48.31-48.31ZM666.73,118.53c-24.32,3.58-44.98-17.07-41.48-41.48,2.3-15.79,14.77-28.25,30.56-30.56,24.41-3.58,44.98,17.07,41.48,41.48-2.3,15.79-14.77,28.25-30.47,30.47l-.09.09Z"/>
      <path class="cls-1" d="M661.18,4.33h0c2.97,0,5.38,2.41,5.38,5.38v16.13c0,2.97-2.41,5.38-5.38,5.38h0c-2.97,0-5.38-2.41-5.38-5.38V9.71c0-2.97,2.41-5.38,5.38-5.38Z"/>
      <path class="cls-1" d="M615.09,19.36h0c2.4-1.75,5.77-1.21,7.51,1.19l9.48,13.05c1.75,2.4,1.21,5.77-1.19,7.51h0c-2.4,1.75-5.77,1.21-7.51-1.19l-9.48-13.05c-1.75-2.4-1.21-5.77,1.19-7.51Z"/>
      <path class="cls-1" d="M586.56,58.63h0c.92-2.82,3.95-4.37,6.78-3.45l15.34,4.98c2.82.92,4.37,3.95,3.45,6.78h0c-.92,2.82-3.95,4.37-6.78,3.45l-15.34-4.98c-2.82-.92-4.37-3.95-3.45-6.78Z"/>
      <path class="cls-1" d="M586.59,107.05h0c-.92-2.82.63-5.86,3.45-6.78l15.34-4.98c2.82-.92,5.86.63,6.78,3.45h0c.92,2.82-.63,5.86-3.45,6.78l-15.34,4.98c-2.82.92-5.86-.63-6.78-3.45Z"/>
      <rect class="cls-1" x="717.57" y="89.47" width="10.75" height="26.89" rx="5.38" ry="5.38" transform="translate(401.67 758.68) rotate(-72)"/>
      <rect class="cls-1" x="709.44" y="57.33" width="26.89" height="10.75" rx="5.38" ry="5.38" transform="translate(16 226.45) rotate(-18)"/>
      <rect class="cls-1" x="685.84" y="24.84" width="26.89" height="10.75" rx="5.38" ry="5.38" transform="translate(263.8 578.19) rotate(-54)"/>
    </g>
  </g>
  <g id="_Слой_2" data-name="Слой 2">
    <g>
      <path class="cls-1" d="M52.31,72.4c5.86,2.99,10.4,7.27,13.59,12.85,3.2,5.58,4.79,12.1,4.79,19.55s-1.6,13.91-4.79,19.39c-3.2,5.48-7.73,9.68-13.59,12.59-5.87,2.92-12.7,4.37-20.49,4.37H7.9v-73.23h23.92c7.8,0,14.63,1.49,20.49,4.48ZM51.52,124.39c4.56-4.64,6.85-11.17,6.85-19.6s-2.28-15.14-6.85-19.91c-4.57-4.78-11.13-7.16-19.7-7.16h-11.91v53.63h11.91c8.57,0,15.14-2.32,19.7-6.95Z"/>
      <path class="cls-1" d="M92.93,138.35c-4.43-2.49-7.9-6.01-10.43-10.54-2.53-4.53-3.79-9.78-3.79-15.75s1.3-11.13,3.9-15.7c2.6-4.57,6.15-8.08,10.64-10.54,4.49-2.46,9.52-3.69,15.07-3.69s10.57,1.23,15.07,3.69c4.49,2.46,8.04,5.97,10.64,10.54,2.6,4.57,3.9,9.8,3.9,15.7s-1.33,11.13-4,15.7c-2.67,4.57-6.31,8.1-10.91,10.59-4.6,2.49-9.68,3.74-15.23,3.74s-10.43-1.25-14.86-3.74ZM116.48,129.45c2.7-1.48,4.9-3.69,6.59-6.64s2.53-6.53,2.53-10.75-.81-7.78-2.42-10.69c-1.62-2.91-3.76-5.11-6.43-6.59-2.67-1.48-5.55-2.21-8.64-2.21s-5.95.74-8.59,2.21c-2.63,1.48-4.73,3.67-6.27,6.59-1.55,2.92-2.32,6.48-2.32,10.69,0,6.25,1.6,11.08,4.79,14.49,3.2,3.41,7.22,5.11,12.06,5.11,3.09,0,5.99-.74,8.69-2.21Z"/>
      <path class="cls-1" d="M191.39,84.99c3.62,1.9,6.44,4.71,8.48,8.43,2.04,3.72,3.06,8.22,3.06,13.49v34.24h-11.91v-32.45c0-5.2-1.3-9.18-3.9-11.96-2.6-2.77-6.15-4.16-10.64-4.16s-8.06,1.39-10.69,4.16c-2.63,2.78-3.95,6.76-3.95,11.96v32.45h-12.01v-58.06h12.01v6.64c1.97-2.39,4.48-4.25,7.53-5.58,3.06-1.33,6.3-2,9.75-2,4.56,0,8.66.95,12.27,2.84Z"/>
      <path class="cls-1" d="M217.84,96.37c2.42-4.49,5.72-7.99,9.9-10.48,4.18-2.49,8.8-3.74,13.86-3.74,4.56,0,8.55.9,11.96,2.69,3.41,1.79,6.13,4.02,8.17,6.69v-8.43h12.12v58.06h-12.12v-8.64c-2.04,2.74-4.81,5.02-8.32,6.85-3.51,1.83-7.52,2.74-12.01,2.74-4.99,0-9.55-1.28-13.7-3.85-4.15-2.56-7.43-6.15-9.85-10.75-2.42-4.6-3.64-9.82-3.64-15.65s1.21-10.99,3.64-15.49ZM259.25,101.63c-1.65-2.95-3.81-5.2-6.48-6.74-2.67-1.54-5.55-2.32-8.64-2.32s-5.97.76-8.64,2.27c-2.67,1.51-4.83,3.72-6.48,6.64-1.65,2.92-2.48,6.38-2.48,10.38s.82,7.52,2.48,10.54c1.65,3.02,3.83,5.32,6.53,6.9,2.7,1.58,5.57,2.37,8.59,2.37s5.97-.77,8.64-2.32c2.67-1.54,4.83-3.81,6.48-6.8,1.65-2.99,2.48-6.48,2.48-10.48s-.83-7.48-2.48-10.43Z"/>
      <path class="cls-1" d="M310.03,84.83c3.55-1.79,7.5-2.69,11.85-2.69,5.13,0,9.76,1.23,13.91,3.69,4.14,2.46,7.41,5.95,9.8,10.48,2.39,4.53,3.58,9.71,3.58,15.54s-1.19,11.05-3.58,15.65c-2.39,4.6-5.67,8.18-9.85,10.75-4.18,2.56-8.8,3.85-13.86,3.85-4.5,0-8.48-.88-11.96-2.63s-6.23-4-8.27-6.74v8.43h-12.01V63.18h12.01v28.55c2.04-2.81,4.83-5.11,8.38-6.9ZM334.48,101.48c-1.65-2.91-3.83-5.13-6.53-6.64-2.7-1.51-5.6-2.27-8.69-2.27s-5.88.77-8.59,2.32c-2.7,1.55-4.88,3.79-6.53,6.74-1.65,2.95-2.48,6.43-2.48,10.43s.82,7.5,2.48,10.48c1.65,2.99,3.83,5.25,6.53,6.8,2.7,1.55,5.57,2.32,8.59,2.32s5.99-.79,8.69-2.37c2.7-1.58,4.88-3.88,6.53-6.9,1.65-3.02,2.48-6.53,2.48-10.54s-.83-7.46-2.48-10.38Z"/>
      <path class="cls-1" d="M371.41,138.35c-4.43-2.49-7.9-6.01-10.43-10.54-2.53-4.53-3.79-9.78-3.79-15.75s1.3-11.13,3.9-15.7c2.6-4.57,6.15-8.08,10.64-10.54,4.5-2.46,9.52-3.69,15.07-3.69s10.57,1.23,15.07,3.69c4.49,2.46,8.04,5.97,10.64,10.54,2.6,4.57,3.9,9.8,3.9,15.7s-1.33,11.13-4,15.7c-2.67,4.57-6.31,8.1-10.91,10.59-4.6,2.49-9.68,3.74-15.23,3.74s-10.43-1.25-14.86-3.74ZM394.96,129.45c2.7-1.48,4.9-3.69,6.58-6.64s2.53-6.53,2.53-10.75-.81-7.78-2.42-10.69c-1.62-2.91-3.76-5.11-6.43-6.59-2.67-1.48-5.55-2.21-8.64-2.21s-5.95.74-8.59,2.21-4.73,3.67-6.27,6.59c-1.55,2.92-2.32,6.48-2.32,10.69,0,6.25,1.6,11.08,4.79,14.49,3.2,3.41,7.22,5.11,12.06,5.11,3.09,0,5.99-.74,8.69-2.21Z"/>
      <path class="cls-1" d="M438.63,138.35c-4.43-2.49-7.9-6.01-10.43-10.54-2.53-4.53-3.79-9.78-3.79-15.75s1.3-11.13,3.9-15.7c2.6-4.57,6.15-8.08,10.64-10.54,4.5-2.46,9.52-3.69,15.07-3.69s10.57,1.23,15.07,3.69c4.49,2.46,8.04,5.97,10.64,10.54,2.6,4.57,3.9,9.8,3.9,15.7s-1.33,11.13-4,15.7c-2.67,4.57-6.31,8.1-10.91,10.59-4.6,2.49-9.68,3.74-15.23,3.74s-10.43-1.25-14.86-3.74ZM462.18,129.45c2.7-1.48,4.9-3.69,6.58-6.64s2.53-6.53,2.53-10.75-.81-7.78-2.42-10.69c-1.62-2.91-3.76-5.11-6.43-6.59-2.67-1.48-5.55-2.21-8.64-2.21s-5.95.74-8.59,2.21-4.72,3.67-6.27,6.59c-1.55,2.92-2.32,6.48-2.32,10.69,0,6.25,1.6,11.08,4.79,14.49,3.2,3.41,7.22,5.11,12.06,5.11,3.09,0,5.99-.74,8.69-2.21Z"/>
      <path class="cls-1" d="M537.09,84.99c3.62,1.9,6.44,4.71,8.48,8.43,2.04,3.72,3.06,8.22,3.06,13.49v34.24h-11.91v-32.45c0-5.2-1.3-9.18-3.9-11.96-2.6-2.77-6.15-4.16-10.64-4.16s-8.06,1.39-10.69,4.16c-2.63,2.78-3.95,6.76-3.95,11.96v32.45h-12.01v-58.06h12.01v6.64c1.97-2.39,4.48-4.25,7.53-5.58,3.06-1.33,6.3-2,9.75-2,4.57,0,8.66.95,12.28,2.84Z"/>
    </g>
  </g>
</svg>